<svg xmlns="http://www.w3.org/2000/svg" version="1.1" xmlns:xlink="http://www.w3.org/1999/xlink" xmlns:svgjs="http://svgjs.dev/svgjs" width="2000" height="1836" viewBox="0 0 2000 1836"><g transform="matrix(1,0,0,1,-2.200753007786375,0)"><svg viewBox="0 0 196 180" data-background-color="#ffffff" preserveAspectRatio="xMidYMid meet" height="1836" width="2000" xmlns="http://www.w3.org/2000/svg" xmlns:xlink="http://www.w3.org/1999/xlink"><g id="tight-bounds" transform="matrix(1,0,0,1,0.21567379476306314,0)"><svg viewBox="0 0 195.5686524104739 180" height="180" width="195.5686524104739"><g><svg viewBox="0 0 222.65417143044004 204.92931951773676" height="180" width="195.5686524104739"><g><svg viewBox="0 0 222.65417143044004 204.92931951773676" height="204.92931951773676" width="222.65417143044004"><g><path d="M0 204.929v-204.929h222.654v204.929z" fill="#8abe53" stroke="transparent" stroke-width="0" rx="0%" data-fill-palette-color="tertiary"></path><path d="M3.283 201.646v-198.363h216.088v198.363z" fill="#ffffff" stroke="transparent" stroke-width="0" rx="0%" data-fill-palette-color="quaternary"></path><path d="M9.85 195.079v-185.229h202.954v185.229z" fill="#8abe53" stroke="transparent" stroke-width="0" data-fill-palette-color="tertiary"></path></g><g transform="matrix(1,0,0,1,19.699740000000013,19.69974)" id="textblocktransform"><svg viewBox="0 0 183.25469143044003 165.52983951773678" height="165.52983951773678" width="183.25469143044003" id="textblock"><g><svg viewBox="0 0 183.25469143044003 100.57561757280003" height="100.57561757280003" width="183.25469143044003"><g transform="matrix(1,0,0,1,0,0)"><svg width="183.25469143044003" viewBox="1.350000023841858 -33.5 61.95000076293945 34" height="100.57561757280003" data-palette-color="#ffffff"><path d="M15.05 0.5L15.05 0.5Q9.75 0.5 6.23-1.58 2.7-3.65 1.35-7.65L1.35-7.65 9.25-11.05Q9.5-9.25 10.18-8.18 10.85-7.1 12-6.63 13.15-6.15 14.7-6.15L14.7-6.15Q16.1-6.15 17.07-6.63 18.05-7.1 18.6-8 19.15-8.9 19.15-10.15L19.15-10.15Q19.15-11.45 18.63-12.25 18.1-13.05 17.13-13.4 16.15-13.75 14.75-13.75L14.75-13.75Q14.1-13.75 13.55-13.73 13-13.7 12.3-13.6L12.3-13.6 12.3-19.2Q12.7-19.15 13.1-19.13 13.5-19.1 14.05-19.1L14.05-19.1Q16.4-19.1 17.43-20.08 18.45-21.05 18.45-23.15L18.45-23.15Q18.45-24.95 17.43-25.9 16.4-26.85 14.55-26.85L14.55-26.85Q12.6-26.85 11.35-25.83 10.1-24.8 9.75-22.35L9.75-22.35 2.2-24.95Q2.75-27.7 4.55-29.6 6.35-31.5 9.08-32.5 11.8-33.5 15.1-33.5L15.1-33.5Q18.9-33.5 21.5-32.4 24.1-31.3 25.45-29.25 26.8-27.2 26.8-24.45L26.8-24.45Q26.8-22.3 26.13-20.85 25.45-19.4 24.43-18.5 23.4-17.6 22.35-17.18 21.3-16.75 20.6-16.65L20.6-16.65 20.6-16.5Q21.5-16.5 22.65-16.15 23.8-15.8 24.9-15.03 26-14.25 26.73-12.9 27.45-11.55 27.45-9.55L27.45-9.55Q27.45-6.45 25.83-4.2 24.2-1.95 21.4-0.73 18.6 0.5 15.05 0.5ZM33.3-33L47.3-33Q55.05-33 59.17-28.7 63.3-24.4 63.3-16.5L63.3-16.5Q63.3-8.6 59.17-4.3 55.05 0 47.3 0L47.3 0 33.3 0 33.3-33ZM41.9-6.5L46.45-6.5Q50.65-6.5 52.57-9.03 54.5-11.55 54.5-16.5L54.5-16.5Q54.5-21.45 52.57-23.98 50.65-26.5 46.45-26.5L46.45-26.5 41.9-26.5 41.9-6.5Z" opacity="1" transform="matrix(1,0,0,1,0,0)" fill="#ffffff" class="undefined-text-0" data-fill-palette-color="quaternary" id="text-0"></path></svg></g></svg></g><g transform="matrix(1,0,0,1,0,107.14219757280003)"><svg viewBox="0 0 183.25469143044003 58.38764194493674" height="58.38764194493674" width="183.25469143044003"><g transform="matrix(1,0,0,1,0,0)"><svg width="183.25469143044003" viewBox="-0.7799999713897705 -35.349998474121094 112.77999877929688 35.939998626708984" height="58.38764194493674" data-palette-color="#ffffff"><path d="M22.51-34.96L32.03-2.1 19.92-0.54 18.46-6.05 12.89-6.05 11.67-0.54-0.78-1.76 8.94-34.28 22.51-34.96ZM13.92-13.53L17.58-13.53 15.72-22.02 13.92-13.53ZM44.04-12.94L53.95-12.94 52.93-2.1 32.37-0.49 33.15-35.35 45.85-35.35 44.04-12.94ZM82.34-19.73L82.34-19.73Q82.34-17.6 82.05-15.48L82.05-15.48Q77.88-15.21 73.75-14.61 69.62-14.01 65.5-13.43L65.5-13.43Q66.13-11.67 67.49-10.62 68.84-9.57 70.72-9.57L70.72-9.57Q71.7-9.57 72.86-9.94 74.02-10.3 75.17-10.85 76.31-11.4 77.36-12.04 78.41-12.67 79.17-13.18L79.17-13.18 78-2.1Q77.05-1.37 75.93-0.85 74.82-0.34 73.63-0.02 72.43 0.29 71.21 0.44 69.99 0.59 68.82 0.59L68.82 0.59Q66.4 0.59 64.4-0.07 62.4-0.73 60.77-1.92 59.15-3.1 57.93-4.71 56.71-6.32 55.9-8.23 55.1-10.13 54.68-12.26 54.27-14.38 54.27-16.55L54.27-16.55Q54.27-18.82 54.68-21.09 55.1-23.36 55.94-25.46 56.78-27.56 58.06-29.36 59.35-31.15 61.05-32.5 62.76-33.84 64.92-34.59 67.08-35.35 69.7-35.35L69.7-35.35Q71.87-35.35 73.66-34.75 75.46-34.16 76.86-33.09 78.27-32.03 79.3-30.57 80.34-29.1 81.01-27.36 81.68-25.61 82.01-23.67 82.34-21.73 82.34-19.73ZM72.58-20.46L72.58-21Q72.58-21.68 72.43-22.4 72.29-23.12 71.96-23.71 71.63-24.29 71.09-24.67 70.55-25.05 69.75-25.05L69.75-25.05Q68.77-25.05 68.02-24.52 67.28-24 66.74-23.21 66.21-22.41 65.86-21.48 65.52-20.56 65.35-19.78L65.35-19.78 72.58-20.46ZM100.48-34.62L112-33.25 102.48-17.68 111.08-3.76 100.87-0.59 95.99-10.06 90.81-0.05 80.27-3.86 89.25-18.02 81.05-31.93 92.23-34.62 96.23-25.78 100.48-34.62Z" opacity="1" transform="matrix(1,0,0,1,0,0)" fill="#ffffff" class="undefined-text-1" data-fill-palette-color="quaternary" id="text-1"></path></svg></g></svg></g></svg></g></svg></g><g></g></svg></g><defs></defs></svg><rect width="195.5686524104739" height="180" fill="none" stroke="none" visibility="hidden"></rect></g></svg></g></svg>